<?xml version="1.0" standalone="no"?>
<!DOCTYPE svg PUBLIC "-//W3C//DTD SVG 20010904//EN"
 "http://www.w3.org/TR/2001/REC-SVG-20010904/DTD/svg10.dtd">
<svg version="1.0" xmlns="http://www.w3.org/2000/svg"
 width="256.000000pt" height="256.000000pt" viewBox="0 0 256.000000 256.000000"
 preserveAspectRatio="xMidYMid meet">
<metadata>
Created by potrace 1.14, written by Peter Selinger 2001-2017
</metadata>
<g transform="translate(0.000000,256.000000) scale(0.100000,-0.100000)"
fill="#000000" stroke="none">
<path d="M63 2541 c-95 -60 -74 -196 35 -223 30 -8 83 7 110 32 33 31 46 92
28 134 -28 66 -113 94 -173 57z"/>
<path d="M2379 2546 c-110 -62 -65 -229 60 -229 21 0 47 6 60 12 30 16 61 69
61 104 0 38 -25 89 -50 105 -33 20 -102 24 -131 8z"/>
<path d="M362 2468 c-17 -17 -15 -46 6 -56 9 -5 50 -9 91 -8 59 1 76 5 85 19
8 12 8 22 0 35 -9 13 -28 18 -90 20 -53 2 -83 -1 -92 -10z"/>
<path d="M690 2465 c-10 -12 -10 -22 -3 -38 10 -22 17 -23 84 -22 98 2 97 2
109 24 7 15 6 23 -6 35 -22 22 -166 23 -184 1z"/>
<path d="M1020 2465 c-13 -16 -5 -54 13 -56 7 -1 44 -3 84 -4 59 -2 75 0 88
15 13 15 14 23 5 39 -9 19 -20 21 -94 21 -61 0 -87 -4 -96 -15z"/>
<path d="M1349 2458 c-10 -18 -8 -24 9 -38 15 -13 38 -16 94 -15 40 1 76 3 79
4 14 3 19 33 9 52 -9 16 -22 19 -95 19 -76 0 -85 -2 -96 -22z"/>
<path d="M1694 2472 c-20 -13 -23 -40 -7 -54 19 -15 149 -20 176 -7 20 11 22
40 5 57 -13 13 -156 17 -174 4z"/>
<path d="M2022 2468 c-16 -16 -15 -45 0 -55 19 -11 150 -12 171 -2 20 11 22
40 5 57 -7 7 -42 12 -88 12 -46 0 -81 -5 -88 -12z"/>
<path d="M374 2212 c-12 -2 -32 -14 -45 -28 l-24 -26 -3 -866 c-3 -789 -2
-870 13 -898 9 -18 27 -36 40 -42 17 -8 307 -11 925 -12 825 0 904 1 930 17
16 9 33 27 39 40 15 33 15 1732 0 1766 -25 54 18 52 -954 52 -495 0 -910 -1
-921 -3z"/>
<path d="M92 2198 c-12 -12 -17 -143 -6 -172 7 -19 49 -21 61 -3 11 17 13 137
2 164 -9 25 -38 30 -57 11z"/>
<path d="M2411 2192 c-13 -24 -8 -159 6 -173 7 -7 22 -9 37 -5 25 6 26 9 26
89 0 51 -5 88 -12 95 -17 17 -46 15 -57 -6z"/>
<path d="M92 1868 c-19 -19 -16 -163 4 -183 14 -14 19 -14 38 -2 18 12 21 25
22 83 1 38 -3 79 -7 92 -9 24 -38 29 -57 10z"/>
<path d="M2412 1863 c-8 -15 -9 -112 -3 -169 2 -19 40 -23 56 -7 11 10 15 37
15 93 0 68 -3 81 -19 90 -28 14 -39 13 -49 -7z"/>
<path d="M92 1538 c-7 -7 -12 -44 -12 -95 0 -73 2 -84 21 -93 16 -9 24 -8 38
4 24 22 24 172 1 186 -20 13 -34 12 -48 -2z"/>
<path d="M2420 1540 c-22 -14 -23 -154 -1 -182 15 -17 21 -19 39 -9 20 10 22
20 22 87 0 101 -17 131 -60 104z"/>
<path d="M98 1209 c-15 -8 -18 -25 -18 -93 0 -90 11 -113 50 -101 23 7 22 5
25 100 2 51 -2 75 -13 88 -17 20 -21 20 -44 6z"/>
<path d="M2418 1203 c-11 -13 -14 -38 -13 -93 1 -41 3 -78 4 -81 2 -14 33 -19
52 -9 16 9 19 22 19 95 0 73 -3 86 -19 95 -25 13 -25 13 -43 -7z"/>
<path d="M110 882 c-25 -9 -30 -24 -30 -103 0 -83 12 -106 50 -94 24 8 22 2
25 93 2 78 -14 116 -45 104z"/>
<path d="M2423 875 c-18 -13 -20 -23 -18 -92 1 -43 3 -81 4 -85 2 -14 42 -19
56 -8 22 18 21 163 -1 184 -19 19 -15 19 -41 1z"/>
<path d="M92 541 c-9 -5 -12 -31 -10 -91 2 -66 7 -85 21 -94 12 -8 22 -8 35 0
14 9 17 27 18 90 1 43 -3 85 -8 92 -12 14 -37 16 -56 3z"/>
<path d="M2413 538 c-11 -18 -12 -149 -1 -170 10 -21 39 -23 56 -6 12 12 17
143 6 172 -7 19 -49 21 -61 4z"/>
<path d="M98 241 c-34 -8 -76 -44 -89 -78 -41 -107 94 -209 185 -140 38 29 55
67 51 114 -3 33 -30 78 -55 89 -35 15 -67 20 -92 15z"/>
<path d="M2403 238 c-33 -9 -82 -58 -84 -86 -6 -69 8 -105 54 -132 77 -47 169
-4 184 85 14 87 -65 156 -154 133z"/>
<path d="M373 149 c-25 -9 -30 -38 -11 -57 16 -16 160 -16 176 0 16 16 15 45
0 55 -18 11 -138 13 -165 2z"/>
<path d="M696 148 c-19 -11 -21 -39 -4 -56 19 -19 163 -16 183 4 14 14 14 19
2 38 -13 18 -24 21 -90 22 -42 0 -83 -3 -91 -8z"/>
<path d="M1025 143 c-18 -17 -18 -19 -5 -44 9 -16 22 -19 95 -19 76 0 85 2 96
21 9 17 8 25 -5 38 -23 22 -160 25 -181 4z"/>
<path d="M1354 139 c-12 -14 -13 -22 -4 -38 9 -19 20 -21 95 -21 73 0 86 3 95
19 10 19 5 49 -9 53 -3 0 -41 2 -83 3 -63 1 -81 -2 -94 -16z"/>
<path d="M1699 153 c-23 -6 -30 -40 -12 -58 18 -19 163 -21 181 -3 16 16 15
45 0 55 -14 8 -141 12 -169 6z"/>
<path d="M2020 146 c-15 -15 -12 -53 6 -60 29 -11 160 -6 172 6 16 16 15 45 0
55 -19 12 -166 11 -178 -1z"/>
</g>
</svg>
